<?xml version="1.0" encoding="UTF-8" standalone="no"?>
<!-- Svg Vector Icons : http://www.onlinewebfonts.com/icon -->

<svg
   version="1.1"
   x="0px"
   y="0px"
   viewBox="0 0 460.46271 460.46271"
   enable-background="new 0 0 1000 1000"
   xml:space="preserve"
   id="svg12"
   sodipodi:docname="ico_orange.svg"
   width="460.46271"
   height="460.46271"
   inkscape:version="1.1.1 (3bf5ae0d25, 2021-09-20)"
   inkscape:export-filename="C:\Sven\00_INCENTED\Logo\icon.png"
   inkscape:export-xdpi="101.52"
   inkscape:export-ydpi="101.52"
   xmlns:inkscape="http://www.inkscape.org/namespaces/inkscape"
   xmlns:sodipodi="http://sodipodi.sourceforge.net/DTD/sodipodi-0.dtd"
   xmlns="http://www.w3.org/2000/svg"
   xmlns:svg="http://www.w3.org/2000/svg"><defs
   id="defs16">
		
	
	
</defs><sodipodi:namedview
   id="namedview14"
   pagecolor="#ffffff"
   bordercolor="#666666"
   borderopacity="1.0"
   inkscape:pageshadow="2"
   inkscape:pageopacity="0.0"
   inkscape:pagecheckerboard="0"
   showgrid="false"
   inkscape:zoom="0.873"
   inkscape:cx="769.18671"
   inkscape:cy="112.25659"
   inkscape:window-width="3200"
   inkscape:window-height="1734"
   inkscape:window-x="3192"
   inkscape:window-y="-8"
   inkscape:window-maximized="1"
   inkscape:current-layer="svg12" />
<metadata
   id="metadata2"> Svg Vector Icons : http://www.onlinewebfonts.com/icon </metadata>

<g
   id="g30204"
   transform="matrix(0.59174268,-0.52017385,0.59154789,0.52034514,-224.80941,198.01718)"
   style="display:inline;fill:#d45500;fill-opacity:1"><g
     id="g30140"
     style="fill:#d45500;fill-opacity:1"
     transform="translate(126.83442,126.79267)">
	<g
   id="g30138"
   style="fill:#d45500;fill-opacity:1">
		<path
   d="m 331.202,180.791 -13.41413,13.41699 c 9.151,9.15 13.44318,18.91741 13.44218,31.85841 0,12.941 -3.61345,22.95683 -12.76445,32.10883 L 331.204,270.912 c 12.034,-12.038 18.663,-28.041 18.663,-45.061 10e-4,-17.021 -6.628,-33.025 -18.665,-45.06 z"
   id="path30136"
   style="fill:#d45500;fill-opacity:1"
   sodipodi:nodetypes="ccccccc" />
	</g>
</g><path
     d="m 629.7199,270.60259 10.803,-10.801 c -29.547,-29.546 -73.062,-36.79999 -109.483,-21.787 4.985,-12.034 7.597,-25.053 7.597,-38.472 0,-26.842 -10.454,-52.078 -29.436,-71.059 l -10.8,10.801 c 16.097,16.096 24.961,37.496 24.961,60.258 0,19.545 -6.553,38.075 -18.592,53.116 0.52,-3.685 0.794,-7.427 0.794,-11.215 0,-21.149 -8.236,-41.033 -23.192,-55.988 l -10.8,10.802 c 12.07,12.069 18.717,28.116 18.717,45.185 0,14.619 -4.89,28.481 -13.874,39.744 -37.579,-31.766 -94.041,-29.97 -129.453,5.442 -47.053,47.051 -96.829,105.656 -136.564,160.789 l 16.84927,11.73477 c 11.245,-15.603 22.827,-30.03964 35.403,-45.85664 l 57.51073,57.23787 16.30444,-16.30725 -58.4779,-59.57997 c 28.712,-35.302 53.90271,-60.69711 83.72471,-90.51711 31.378,-31.377 73.56278,-33.63818 104.93878,-2.26118 15.201,15.198 23.14294,30.02599 23.14294,51.51999 0,21.497 -5.89545,39.22864 -21.09545,54.42864 -7.191,7.19 -9.13468,9.41298 -16.72168,16.60798 l -83.26513,-83.81567 -17.06371,16.09757 83.25254,82.15294 c -4.086,3.781 -8.76235,8.10253 -12.92935,11.86153 l -59.52219,-59.52147 -14.10306,14.10515 57.83562,59.48629 c -46.036,40.596 -89.3756,75.45909 -134.6676,104.91409 -11.93,7.758 -18.21685,11.22461 -28.33985,17.03761 l -38.73001,-39.00587 -15.7551,15.75573 34.55934,34.56438 c -46.988,25.06 -62.28638,24.47458 -69.53238,17.22758 -3.051,-3.051 -9.55525,-10.09281 5.39875,-45.99781 10.923,-26.226 30.01586,-55.71887 56.23486,-93.63887 L 198.0199,464.94959 c -26.819,38.787 -46.982,73.666 -58.312,100.866 -13.795,33.122 -14.818,54.907 -3.122,66.602 5.376,5.376 12.862,8.064 22.601,8.064 9.597,0 21.382,-2.611 35.483,-7.832 23.536,-8.714 52.81,-24.407 87.009,-46.648 65.779,-42.777 140.805,-104.072 200.694,-163.962 18.087,-18.085 28.047,-42.131 28.047,-67.708 0,-22.868 -7.968,-44.507 -22.581,-61.759 25.063,-19.921 61.738,-18.311 84.907,4.858 l 10.8,-10.801 c -18.303,-18.303 -43.411,-25.752 -67.256,-22.351 33.43,-26.733 82.474,-24.633 113.43,6.324 z"
     id="path30142"
     style="fill:#d45500;fill-opacity:1"
     sodipodi:nodetypes="cccsccscsccsccccccccccsccccccccccccccccccccscccsccccc" /><g
     id="g30148"
     style="fill:#d45500;fill-opacity:1"
     transform="translate(126.83442,126.79267)">
</g><g
     id="g30150"
     style="fill:#d45500;fill-opacity:1"
     transform="translate(126.83442,126.79267)">
</g><g
     id="g30152"
     style="fill:#d45500;fill-opacity:1"
     transform="translate(126.83442,126.79267)">
</g><g
     id="g30154"
     style="fill:#d45500;fill-opacity:1"
     transform="translate(126.83442,126.79267)">
</g><g
     id="g30156"
     style="fill:#d45500;fill-opacity:1"
     transform="translate(126.83442,126.79267)">
</g><g
     id="g30158"
     style="fill:#d45500;fill-opacity:1"
     transform="translate(126.83442,126.79267)">
</g><g
     id="g30160"
     style="fill:#d45500;fill-opacity:1"
     transform="translate(126.83442,126.79267)">
</g><g
     id="g30162"
     style="fill:#d45500;fill-opacity:1"
     transform="translate(126.83442,126.79267)">
</g><g
     id="g30164"
     style="fill:#d45500;fill-opacity:1"
     transform="translate(126.83442,126.79267)">
</g><g
     id="g30166"
     style="fill:#d45500;fill-opacity:1"
     transform="translate(126.83442,126.79267)">
</g><g
     id="g30168"
     style="fill:#d45500;fill-opacity:1"
     transform="translate(126.83442,126.79267)">
</g><g
     id="g30170"
     style="fill:#d45500;fill-opacity:1"
     transform="translate(126.83442,126.79267)">
</g><g
     id="g30172"
     style="fill:#d45500;fill-opacity:1"
     transform="translate(126.83442,126.79267)">
</g><g
     id="g30174"
     style="fill:#d45500;fill-opacity:1"
     transform="translate(126.83442,126.79267)">
</g><g
     id="g30176"
     style="fill:#d45500;fill-opacity:1"
     transform="translate(126.83442,126.79267)">
</g></g></svg>
