<svg width="16" height="16" viewBox="0 0 16 16" fill="none" xmlns="http://www.w3.org/2000/svg">
<g id="carrot">
<path id="Vector" d="M5.76 9.33334L4.39334 7.97334M10.2267 10L8.58667 8.36001M10 6.00001C10 6.00001 11.24 4.66668 12.3333 4.66668C13.78 4.66668 14.6667 6.00001 14.6667 6.00001C14.6667 6.00001 13.78 7.33334 12.3333 7.33334C10.8867 7.33334 10 6.00001 10 6.00001ZM10 6.00001C10 6.00001 8.66667 5.11334 8.66667 3.66668C8.66667 2.22001 10 1.33334 10 1.33334C10 1.33334 11.3333 2.22001 11.3333 3.66668C11.3333 4.77334 10 6.00001 10 6.00001ZM1.51334 14.4667C1.51334 14.4667 8.09334 12.1333 10 10.2267C10.2788 9.94827 10.5001 9.61768 10.6512 9.25376C10.8023 8.88984 10.8802 8.49973 10.8805 8.1057C10.8808 7.71167 10.8035 7.32144 10.653 6.95728C10.5025 6.59313 10.2817 6.26218 10.0033 5.98334C9.72493 5.7045 9.39434 5.48323 9.03042 5.33215C8.6665 5.18108 8.27639 5.10316 7.88236 5.10285C7.48833 5.10254 7.0981 5.17985 6.73394 5.33035C6.36979 5.48085 6.03884 5.70161 5.76 5.98001C3.84667 7.89334 1.51334 14.4667 1.51334 14.4667Z" stroke="#0C0A09" style="stroke:#0C0A09;stroke:color(display-p3 0.0471 0.0392 0.0353);stroke-opacity:1;" strokeLinecap="round" strokeLinejoin="round"/>
</g>
</svg>
