<svg width="16" height="16" viewBox="0 0 16 16" fill="none" xmlns="http://www.w3.org/2000/svg">
<g clip-path="url(#clip0_22_4075)">
<path d="M12.06 6.91334C12.6902 7.1483 13.251 7.53836 13.6905 8.04748C14.13 8.55659 14.434 9.1683 14.5745 9.82606C14.7149 10.4838 14.6872 11.1664 14.494 11.8106C14.3008 12.4548 13.9482 13.0399 13.4689 13.5118C12.9897 13.9836 12.3991 14.327 11.752 14.5102C11.1048 14.6933 10.4219 14.7103 9.76643 14.5596C9.11096 14.409 8.50406 14.0954 8.00186 13.648C7.49967 13.2006 7.1184 12.6338 6.89331 12M4.66665 4.00001H5.33331V6.66668M11.14 9.25334L11.6066 9.72668L9.72665 11.6067M9.33331 5.33334C9.33331 7.54248 7.54245 9.33334 5.33331 9.33334C3.12417 9.33334 1.33331 7.54248 1.33331 5.33334C1.33331 3.1242 3.12417 1.33334 5.33331 1.33334C7.54245 1.33334 9.33331 3.1242 9.33331 5.33334Z" stroke="#0C0A09" style="stroke:#0C0A09;stroke:color(display-p3 0.0471 0.0392 0.0353);stroke-opacity:1;" stroke-linecap="round" stroke-linejoin="round"/>
</g>
<defs>
<clipPath id="clip0_22_4075">
<rect width="16" height="16" fill="white" style="fill:white;fill-opacity:1;"/>
</clipPath>
</defs>
</svg>
